<mxfile host="app.diagrams.net" modified="2022-11-03T09:22:03.091Z" agent="5.0 (X11; Linux x86_64) AppleWebKit/537.36 (KHTML, like Gecko) Chrome/105.0.0.0 Safari/537.36" etag="ORXPG-9tFnyQgqBX_d9H" version="20.5.1" type="github">
  <diagram name="Page-1" id="c7558073-3199-34d8-9f00-42111426c3f3">
    <mxGraphModel dx="2368" dy="1385" grid="1" gridSize="10" guides="1" tooltips="1" connect="1" arrows="1" fold="1" page="1" pageScale="1" pageWidth="826" pageHeight="1169" background="none" math="0" shadow="0">
      <root>
        <mxCell id="0" />
        <mxCell id="1" parent="0" />
        <mxCell id="28GHZzrFu9PTkFyZmICQ-11" value="" style="rounded=0;whiteSpace=wrap;html=1;fontSize=8;" parent="1" vertex="1">
          <mxGeometry x="1300" y="85" width="327.5" height="345" as="geometry" />
        </mxCell>
        <mxCell id="CetUI4caQbK0a_8Yk0xr-100" value="GET_API&#xa;https://www.edenai.co/" style="shape=process;whiteSpace=wrap;align=center;verticalAlign=middle;size=0.0475;fontStyle=1;strokeWidth=3;fillColor=#FFCCCC;fontSize=20;" parent="1" vertex="1">
          <mxGeometry x="270" y="1000" width="560" height="70" as="geometry" />
        </mxCell>
        <mxCell id="CetUI4caQbK0a_8Yk0xr-101" value="&lt;p style=&quot;margin: 0px; margin-top: 4px; text-align: center; text-decoration: underline;&quot;&gt;&lt;strong&gt;&lt;strong&gt;Query&lt;/strong&gt;&lt;br&gt;&lt;/strong&gt;&lt;/p&gt;&lt;hr&gt;&lt;p style=&quot;margin: 0px; margin-left: 8px;&quot;&gt;Get Query from&lt;br&gt;&amp;nbsp;User&lt;/p&gt;" style="verticalAlign=middle;align=center;overflow=fill;fontSize=12;fontFamily=Helvetica;html=1;rounded=1;fontStyle=1;strokeWidth=3;fillColor=#E6FFCC" parent="1" vertex="1">
          <mxGeometry x="1065" y="380" width="110" height="70" as="geometry" />
        </mxCell>
        <mxCell id="CetUI4caQbK0a_8Yk0xr-102" style="edgeStyle=orthogonalEdgeStyle;rounded=1;orthogonalLoop=1;jettySize=auto;html=1;exitX=0.5;exitY=1;exitDx=0;exitDy=0;entryX=0.5;entryY=0;entryDx=0;entryDy=0;fillColor=#f8cecc;strokeColor=#B85450;strokeWidth=2;" parent="1" edge="1">
          <mxGeometry relative="1" as="geometry">
            <mxPoint x="1116" y="310" as="sourcePoint" />
            <mxPoint x="1116" y="380" as="targetPoint" />
          </mxGeometry>
        </mxCell>
        <mxCell id="CetUI4caQbK0a_8Yk0xr-103" value="Twitter analysis" style="whiteSpace=wrap;align=center;verticalAlign=middle;fontStyle=1;strokeWidth=3;fillColor=#FFFFCC;fontSize=25;" parent="1" vertex="1">
          <mxGeometry x="910" y="250" width="285" height="60" as="geometry" />
        </mxCell>
        <mxCell id="CetUI4caQbK0a_8Yk0xr-105" style="edgeStyle=orthogonalEdgeStyle;rounded=1;orthogonalLoop=1;jettySize=auto;html=1;exitX=0.5;exitY=1;exitDx=0;exitDy=0;fillColor=#f8cecc;strokeColor=#B85450;strokeWidth=2;" parent="1" edge="1">
          <mxGeometry relative="1" as="geometry">
            <mxPoint x="1117" y="449" as="sourcePoint" />
            <mxPoint x="1117" y="510" as="targetPoint" />
          </mxGeometry>
        </mxCell>
        <mxCell id="CetUI4caQbK0a_8Yk0xr-106" value="GET_Tweets&#xa;UsingÂ sntwitter Python package" style="shape=process;whiteSpace=wrap;align=center;verticalAlign=middle;size=0.0475;fontStyle=1;strokeWidth=3;fillColor=#FFCCCC" parent="1" vertex="1">
          <mxGeometry x="995" y="510" width="250" height="50" as="geometry" />
        </mxCell>
        <mxCell id="CetUI4caQbK0a_8Yk0xr-107" value="&lt;font style=&quot;font-size: 15px;&quot;&gt;String&lt;/font&gt;" style="text;html=1;strokeColor=none;fillColor=none;align=center;verticalAlign=middle;whiteSpace=wrap;rounded=0;" parent="1" vertex="1">
          <mxGeometry x="1045" y="462" width="60" height="30" as="geometry" />
        </mxCell>
        <mxCell id="CetUI4caQbK0a_8Yk0xr-108" style="edgeStyle=orthogonalEdgeStyle;rounded=1;orthogonalLoop=1;jettySize=auto;html=1;exitX=0.5;exitY=1;exitDx=0;exitDy=0;fillColor=#f8cecc;strokeColor=#B85450;strokeWidth=2;entryX=0.592;entryY=0.005;entryDx=0;entryDy=0;entryPerimeter=0;" parent="1" target="CetUI4caQbK0a_8Yk0xr-112" edge="1">
          <mxGeometry relative="1" as="geometry">
            <mxPoint x="1118" y="558.9999999999999" as="sourcePoint" />
            <mxPoint x="1118" y="620" as="targetPoint" />
            <Array as="points">
              <mxPoint x="1122" y="559" />
            </Array>
          </mxGeometry>
        </mxCell>
        <mxCell id="CetUI4caQbK0a_8Yk0xr-109" value="&lt;font style=&quot;font-size: 15px;&quot;&gt;Pandas dataframe&lt;/font&gt;" style="text;html=1;strokeColor=none;fillColor=none;align=center;verticalAlign=middle;whiteSpace=wrap;rounded=0;" parent="1" vertex="1">
          <mxGeometry x="1035" y="600" width="80" height="30" as="geometry" />
        </mxCell>
        <mxCell id="CetUI4caQbK0a_8Yk0xr-112" value="Sort df by Likes&lt;br&gt;Then by Retweet&lt;br&gt;Then by Replay&lt;br&gt;&lt;br&gt;Join all&amp;nbsp;tweets&#39; text" style="html=1;whiteSpace=wrap;container=1;recursiveResize=0;collapsible=0;fillColor=#fff2cc;strokeColor=#d6b656;" parent="1" vertex="1">
          <mxGeometry x="1045" y="680" width="130" height="80" as="geometry" />
        </mxCell>
        <mxCell id="CetUI4caQbK0a_8Yk0xr-185" style="edgeStyle=orthogonalEdgeStyle;rounded=1;orthogonalLoop=1;jettySize=auto;html=1;strokeColor=#B85450;strokeWidth=2;fontSize=20;entryX=0.453;entryY=1.018;entryDx=0;entryDy=0;entryPerimeter=0;exitX=0;exitY=0.5;exitDx=0;exitDy=0;" parent="1" source="CetUI4caQbK0a_8Yk0xr-120" target="CetUI4caQbK0a_8Yk0xr-126" edge="1">
          <mxGeometry relative="1" as="geometry">
            <mxPoint x="190" y="709.9999999999998" as="targetPoint" />
          </mxGeometry>
        </mxCell>
        <mxCell id="CetUI4caQbK0a_8Yk0xr-120" value="&lt;p style=&quot;margin: 4px 0px 0px; text-align: center;&quot;&gt;&lt;u&gt;&lt;font style=&quot;font-size: 17px;&quot;&gt;Clean_text&lt;/font&gt;&lt;/u&gt;&lt;br&gt;&lt;/p&gt;&lt;hr&gt;&lt;p style=&quot;margin: 0px; margin-left: 8px;&quot;&gt;Remove URLS&lt;br&gt;Remove mentions&lt;br&gt;Remove Hashtags&lt;br&gt;Remove Numbers&lt;br&gt;.&lt;br&gt;.&lt;/p&gt;&lt;p style=&quot;margin: 0px; margin-left: 8px;&quot;&gt;.&lt;/p&gt;" style="verticalAlign=middle;align=center;overflow=fill;fontSize=12;fontFamily=Helvetica;html=1;rounded=1;fontStyle=1;strokeWidth=3;fillColor=#E6FFCC" parent="1" vertex="1">
          <mxGeometry x="286" y="768" width="570" height="140" as="geometry" />
        </mxCell>
        <mxCell id="CetUI4caQbK0a_8Yk0xr-122" value="" style="edgeStyle=elbowEdgeStyle;elbow=vertical;endArrow=classic;html=1;rounded=1;strokeColor=#B85450;strokeWidth=2;exitX=0.578;exitY=0.994;exitDx=0;exitDy=0;exitPerimeter=0;" parent="1" source="CetUI4caQbK0a_8Yk0xr-112" target="CetUI4caQbK0a_8Yk0xr-120" edge="1">
          <mxGeometry width="50" height="50" relative="1" as="geometry">
            <mxPoint x="1239.9999999999998" y="710" as="sourcePoint" />
            <mxPoint x="655" y="850" as="targetPoint" />
            <Array as="points">
              <mxPoint x="905" y="850" />
            </Array>
          </mxGeometry>
        </mxCell>
        <mxCell id="CetUI4caQbK0a_8Yk0xr-123" style="edgeStyle=orthogonalEdgeStyle;rounded=1;orthogonalLoop=1;jettySize=auto;html=1;fillColor=#f8cecc;strokeColor=#B85450;strokeWidth=2;entryX=0.501;entryY=0;entryDx=0;entryDy=0;entryPerimeter=0;" parent="1" edge="1">
          <mxGeometry relative="1" as="geometry">
            <mxPoint x="550" y="918" as="sourcePoint" />
            <mxPoint x="550.5600000000004" y="998" as="targetPoint" />
            <Array as="points">
              <mxPoint x="551" y="908" />
            </Array>
          </mxGeometry>
        </mxCell>
        <mxCell id="CetUI4caQbK0a_8Yk0xr-186" style="edgeStyle=orthogonalEdgeStyle;rounded=1;orthogonalLoop=1;jettySize=auto;html=1;entryX=0;entryY=0.5;entryDx=0;entryDy=0;strokeColor=#B20000;strokeWidth=2;fontSize=20;fillColor=#e51400;dashed=1;" parent="1" target="CetUI4caQbK0a_8Yk0xr-103" edge="1">
          <mxGeometry relative="1" as="geometry">
            <mxPoint x="190" y="490" as="sourcePoint" />
            <Array as="points">
              <mxPoint x="190" y="280" />
            </Array>
          </mxGeometry>
        </mxCell>
        <mxCell id="CetUI4caQbK0a_8Yk0xr-190" value="" style="edgeStyle=orthogonalEdgeStyle;rounded=1;orthogonalLoop=1;jettySize=auto;html=1;strokeColor=#B85450;strokeWidth=2;fontSize=20;" parent="1" target="CetUI4caQbK0a_8Yk0xr-133" edge="1">
          <mxGeometry relative="1" as="geometry">
            <mxPoint x="195" y="630" as="sourcePoint" />
          </mxGeometry>
        </mxCell>
        <mxCell id="CetUI4caQbK0a_8Yk0xr-126" value="&lt;p style=&quot;margin: 0px; margin-top: 4px; text-align: center; text-decoration: underline;&quot;&gt;&lt;strong&gt;&lt;strong&gt;Stop Words&lt;/strong&gt;&lt;br&gt;&lt;/strong&gt;&lt;/p&gt;&lt;hr&gt;&lt;p style=&quot;margin: 0px; margin-left: 8px;&quot;&gt;Remove Stopwords &lt;br&gt;From cleaned text&lt;br&gt;&lt;/p&gt;" style="verticalAlign=middle;align=center;overflow=fill;fontSize=12;fontFamily=Helvetica;html=1;rounded=1;fontStyle=1;strokeWidth=3;fillColor=#E6FFCC" parent="1" vertex="1">
          <mxGeometry x="80" y="630" width="240" height="90" as="geometry" />
        </mxCell>
        <mxCell id="CetUI4caQbK0a_8Yk0xr-128" value="" style="edgeStyle=elbowEdgeStyle;elbow=vertical;endArrow=classic;html=1;rounded=1;strokeColor=#B85450;strokeWidth=2;exitX=1;exitY=0.5;exitDx=0;exitDy=0;entryX=1;entryY=0.5;entryDx=0;entryDy=0;" parent="1" source="CetUI4caQbK0a_8Yk0xr-100" target="CetUI4caQbK0a_8Yk0xr-103" edge="1">
          <mxGeometry width="50" height="50" relative="1" as="geometry">
            <mxPoint x="1135" y="1020" as="sourcePoint" />
            <mxPoint x="1185" y="970" as="targetPoint" />
            <Array as="points">
              <mxPoint x="1275" y="730" />
            </Array>
          </mxGeometry>
        </mxCell>
        <mxCell id="CetUI4caQbK0a_8Yk0xr-129" value="&lt;font style=&quot;font-size: 15px;&quot;&gt;Dictionary with sentiment probabilities&lt;/font&gt;" style="text;html=1;strokeColor=none;fillColor=none;align=center;verticalAlign=middle;whiteSpace=wrap;rounded=0;" parent="1" vertex="1">
          <mxGeometry x="935" y="990" width="160" height="30" as="geometry" />
        </mxCell>
        <mxCell id="CetUI4caQbK0a_8Yk0xr-133" value="&lt;p style=&quot;margin: 0px; margin-top: 4px; text-align: center; text-decoration: underline;&quot;&gt;&lt;strong&gt;&lt;strong&gt;Get Word Cloud&lt;/strong&gt;&lt;br&gt;&lt;/strong&gt;&lt;/p&gt;&lt;hr&gt;&lt;p style=&quot;margin: 0px; margin-left: 8px;&quot;&gt;Using Python Package&lt;br&gt;Wordcloud&lt;br&gt;And language&amp;nbsp;chosen&lt;br&gt;by user&lt;/p&gt;" style="verticalAlign=middle;align=center;overflow=fill;fontSize=12;fontFamily=Helvetica;html=1;rounded=1;fontStyle=1;strokeWidth=3;fillColor=#E6FFCC" parent="1" vertex="1">
          <mxGeometry x="120" y="456" width="150" height="104" as="geometry" />
        </mxCell>
        <mxCell id="CetUI4caQbK0a_8Yk0xr-138" value="&lt;font style=&quot;font-size: 15px;&quot;&gt;png Photo&lt;/font&gt;" style="text;html=1;strokeColor=none;fillColor=none;align=center;verticalAlign=middle;whiteSpace=wrap;rounded=0;strokeWidth=3;" parent="1" vertex="1">
          <mxGeometry x="210" y="250" width="80" height="30" as="geometry" />
        </mxCell>
        <mxCell id="CetUI4caQbK0a_8Yk0xr-139" value="&lt;font style=&quot;font-size: 15px;&quot;&gt;String&lt;/font&gt;" style="text;html=1;strokeColor=none;fillColor=none;align=center;verticalAlign=middle;whiteSpace=wrap;rounded=0;" parent="1" vertex="1">
          <mxGeometry x="1045" y="811" width="60" height="30" as="geometry" />
        </mxCell>
        <mxCell id="CetUI4caQbK0a_8Yk0xr-143" value="&lt;font style=&quot;font-size: 15px;&quot;&gt;String&lt;/font&gt;" style="text;html=1;strokeColor=none;fillColor=none;align=center;verticalAlign=middle;whiteSpace=wrap;rounded=0;" parent="1" vertex="1">
          <mxGeometry x="479" y="940" width="60" height="30" as="geometry" />
        </mxCell>
        <mxCell id="CetUI4caQbK0a_8Yk0xr-145" value="Your text analysis" style="whiteSpace=wrap;align=center;verticalAlign=middle;fontStyle=1;strokeWidth=3;fillColor=#FFFFCC;fontSize=25;" parent="1" vertex="1">
          <mxGeometry x="613" y="172" width="340" height="60" as="geometry" />
        </mxCell>
        <mxCell id="CetUI4caQbK0a_8Yk0xr-146" value="&lt;p style=&quot;margin: 0px; margin-top: 4px; text-align: center; text-decoration: underline;&quot;&gt;&lt;strong&gt;&lt;strong&gt;Text&lt;/strong&gt;&lt;br&gt;&lt;/strong&gt;&lt;/p&gt;&lt;hr&gt;&lt;p style=&quot;margin: 0px; margin-left: 8px;&quot;&gt;Get Text from&lt;br&gt;&amp;nbsp;User&lt;/p&gt;" style="verticalAlign=middle;align=center;overflow=fill;fontSize=12;fontFamily=Helvetica;html=1;rounded=1;fontStyle=1;strokeWidth=3;fillColor=#E6FFCC" parent="1" vertex="1">
          <mxGeometry x="748.25" y="428" width="125" height="90" as="geometry" />
        </mxCell>
        <mxCell id="CetUI4caQbK0a_8Yk0xr-148" value="&lt;font style=&quot;font-size: 15px;&quot;&gt;String&lt;/font&gt;" style="text;html=1;strokeColor=none;fillColor=none;align=center;verticalAlign=middle;whiteSpace=wrap;rounded=0;" parent="1" vertex="1">
          <mxGeometry x="753" y="552" width="60" height="30" as="geometry" />
        </mxCell>
        <mxCell id="CetUI4caQbK0a_8Yk0xr-149" style="edgeStyle=orthogonalEdgeStyle;rounded=1;orthogonalLoop=1;jettySize=auto;html=1;exitX=0.5;exitY=1;exitDx=0;exitDy=0;fillColor=#f8cecc;strokeColor=#B85450;strokeWidth=2;entryX=0.892;entryY=-0.01;entryDx=0;entryDy=0;entryPerimeter=0;" parent="1" target="CetUI4caQbK0a_8Yk0xr-151" edge="1">
          <mxGeometry relative="1" as="geometry">
            <mxPoint x="810.1599999999999" y="519" as="sourcePoint" />
            <mxPoint x="810.1599999999999" y="579.9999999999998" as="targetPoint" />
          </mxGeometry>
        </mxCell>
        <mxCell id="CetUI4caQbK0a_8Yk0xr-150" value="" style="endArrow=classic;html=1;rounded=1;strokeColor=#B85450;strokeWidth=2;fontSize=15;entryX=0.5;entryY=0;entryDx=0;entryDy=0;exitX=0.585;exitY=1;exitDx=0;exitDy=0;exitPerimeter=0;" parent="1" source="CetUI4caQbK0a_8Yk0xr-145" target="CetUI4caQbK0a_8Yk0xr-146" edge="1">
          <mxGeometry width="50" height="50" relative="1" as="geometry">
            <mxPoint x="810.5899999999997" y="302" as="sourcePoint" />
            <mxPoint x="895.75" y="342" as="targetPoint" />
          </mxGeometry>
        </mxCell>
        <mxCell id="CetUI4caQbK0a_8Yk0xr-151" value="GET_Language&#xa;Language detection using langid Python package" style="shape=process;whiteSpace=wrap;align=center;verticalAlign=middle;size=0.0475;fontStyle=1;strokeWidth=3;fillColor=#FFCCCC" parent="1" vertex="1">
          <mxGeometry x="436" y="615" width="420" height="50" as="geometry" />
        </mxCell>
        <mxCell id="CetUI4caQbK0a_8Yk0xr-152" value="" style="endArrow=classic;html=1;rounded=1;strokeColor=#B85450;strokeWidth=2;fontSize=15;exitX=0.894;exitY=1.027;exitDx=0;exitDy=0;exitPerimeter=0;entryX=0.8;entryY=0;entryDx=0;entryDy=0;entryPerimeter=0;" parent="1" source="CetUI4caQbK0a_8Yk0xr-151" edge="1">
          <mxGeometry width="50" height="50" relative="1" as="geometry">
            <mxPoint x="812.9999999999995" y="638" as="sourcePoint" />
            <mxPoint x="813" y="768" as="targetPoint" />
          </mxGeometry>
        </mxCell>
        <mxCell id="CetUI4caQbK0a_8Yk0xr-153" value="&lt;font style=&quot;font-size: 15px;&quot;&gt;String&lt;/font&gt;" style="text;html=1;strokeColor=none;fillColor=none;align=center;verticalAlign=middle;whiteSpace=wrap;rounded=0;" parent="1" vertex="1">
          <mxGeometry x="753" y="705" width="60" height="30" as="geometry" />
        </mxCell>
        <mxCell id="CetUI4caQbK0a_8Yk0xr-165" value="" style="edgeStyle=elbowEdgeStyle;elbow=vertical;endArrow=classic;html=1;rounded=1;strokeColor=#B85450;strokeWidth=2;fontSize=15;" parent="1" edge="1">
          <mxGeometry width="50" height="50" relative="1" as="geometry">
            <mxPoint x="1275" y="290" as="sourcePoint" />
            <mxPoint x="953" y="210" as="targetPoint" />
            <Array as="points">
              <mxPoint x="1000" y="210" />
            </Array>
          </mxGeometry>
        </mxCell>
        <mxCell id="CetUI4caQbK0a_8Yk0xr-166" value="&lt;font style=&quot;font-size: 15px;&quot;&gt;Dictionary with sentiment probabilities&lt;/font&gt;" style="text;html=1;strokeColor=none;fillColor=none;align=center;verticalAlign=middle;whiteSpace=wrap;rounded=0;" parent="1" vertex="1">
          <mxGeometry x="1030" y="172" width="160" height="30" as="geometry" />
        </mxCell>
        <mxCell id="CetUI4caQbK0a_8Yk0xr-167" value="URL text analysis" style="whiteSpace=wrap;align=center;verticalAlign=middle;fontStyle=1;strokeWidth=3;fillColor=#FFFFCC;fontSize=25;" parent="1" vertex="1">
          <mxGeometry x="339" y="100" width="340" height="60" as="geometry" />
        </mxCell>
        <mxCell id="CetUI4caQbK0a_8Yk0xr-168" value="&lt;p style=&quot;margin: 0px; margin-top: 4px; text-align: center; text-decoration: underline;&quot;&gt;&lt;strong&gt;&lt;strong&gt;URL&lt;/strong&gt;&lt;br&gt;&lt;/strong&gt;&lt;/p&gt;&lt;hr&gt;&lt;p style=&quot;margin: 0px; margin-left: 8px;&quot;&gt;Get URL from&lt;br&gt;&amp;nbsp;User&lt;/p&gt;" style="verticalAlign=middle;align=center;overflow=fill;fontSize=12;fontFamily=Helvetica;html=1;rounded=1;fontStyle=1;strokeWidth=3;fillColor=#E6FFCC" parent="1" vertex="1">
          <mxGeometry x="479" y="320" width="125" height="62" as="geometry" />
        </mxCell>
        <mxCell id="CetUI4caQbK0a_8Yk0xr-169" value="&lt;font style=&quot;font-size: 15px;&quot;&gt;String&lt;/font&gt;" style="text;html=1;strokeColor=none;fillColor=none;align=center;verticalAlign=middle;whiteSpace=wrap;rounded=0;" parent="1" vertex="1">
          <mxGeometry x="474.25" y="552" width="60" height="30" as="geometry" />
        </mxCell>
        <mxCell id="CetUI4caQbK0a_8Yk0xr-170" style="edgeStyle=orthogonalEdgeStyle;rounded=1;orthogonalLoop=1;jettySize=auto;html=1;exitX=0.5;exitY=1;exitDx=0;exitDy=0;fillColor=#f8cecc;strokeColor=#B85450;strokeWidth=2;" parent="1" source="CetUI4caQbK0a_8Yk0xr-176" edge="1">
          <mxGeometry relative="1" as="geometry">
            <mxPoint x="536.1599999999999" y="560" as="sourcePoint" />
            <mxPoint x="536" y="612" as="targetPoint" />
            <Array as="points">
              <mxPoint x="536" y="512" />
            </Array>
          </mxGeometry>
        </mxCell>
        <mxCell id="CetUI4caQbK0a_8Yk0xr-171" value="" style="endArrow=classic;html=1;rounded=1;strokeColor=#B85450;strokeWidth=2;fontSize=15;exitX=0.585;exitY=1;exitDx=0;exitDy=0;exitPerimeter=0;entryX=0.46;entryY=0.005;entryDx=0;entryDy=0;entryPerimeter=0;" parent="1" source="CetUI4caQbK0a_8Yk0xr-167" target="CetUI4caQbK0a_8Yk0xr-168" edge="1">
          <mxGeometry width="50" height="50" relative="1" as="geometry">
            <mxPoint x="536.5899999999997" y="230" as="sourcePoint" />
            <mxPoint x="538" y="260" as="targetPoint" />
          </mxGeometry>
        </mxCell>
        <mxCell id="CetUI4caQbK0a_8Yk0xr-173" value="" style="endArrow=classic;html=1;rounded=1;strokeColor=#B85450;strokeWidth=2;fontSize=15;entryX=0.8;entryY=0;entryDx=0;entryDy=0;entryPerimeter=0;exitX=0.245;exitY=1.007;exitDx=0;exitDy=0;exitPerimeter=0;" parent="1" source="CetUI4caQbK0a_8Yk0xr-151" edge="1">
          <mxGeometry width="50" height="50" relative="1" as="geometry">
            <mxPoint x="539" y="670" as="sourcePoint" />
            <mxPoint x="538.9999999999995" y="768" as="targetPoint" />
          </mxGeometry>
        </mxCell>
        <mxCell id="CetUI4caQbK0a_8Yk0xr-174" value="&lt;font style=&quot;font-size: 15px;&quot;&gt;String&lt;/font&gt;" style="text;html=1;strokeColor=none;fillColor=none;align=center;verticalAlign=middle;whiteSpace=wrap;rounded=0;" parent="1" vertex="1">
          <mxGeometry x="474.25" y="705" width="60" height="30" as="geometry" />
        </mxCell>
        <mxCell id="CetUI4caQbK0a_8Yk0xr-175" value="" style="endArrow=classic;html=1;rounded=1;strokeColor=#B85450;strokeWidth=2;fontSize=15;exitX=0.585;exitY=1;exitDx=0;exitDy=0;exitPerimeter=0;" parent="1" edge="1">
          <mxGeometry width="50" height="50" relative="1" as="geometry">
            <mxPoint x="539.0000000000003" y="382" as="sourcePoint" />
            <mxPoint x="539" y="462" as="targetPoint" />
          </mxGeometry>
        </mxCell>
        <mxCell id="CetUI4caQbK0a_8Yk0xr-176" value="GET_HTML_TEXT&#xa;Scrape URL and get only text&#xa;UsingÂ BeautifulSoup Python package" style="shape=process;whiteSpace=wrap;align=center;verticalAlign=middle;size=0.0475;fontStyle=1;strokeWidth=3;fillColor=#FFCCCC" parent="1" vertex="1">
          <mxGeometry x="409" y="462" width="250" height="50" as="geometry" />
        </mxCell>
        <mxCell id="CetUI4caQbK0a_8Yk0xr-177" value="&lt;font style=&quot;font-size: 15px;&quot;&gt;String&lt;/font&gt;" style="text;html=1;strokeColor=none;fillColor=none;align=center;verticalAlign=middle;whiteSpace=wrap;rounded=0;" parent="1" vertex="1">
          <mxGeometry x="474.25" y="400" width="60" height="30" as="geometry" />
        </mxCell>
        <mxCell id="CetUI4caQbK0a_8Yk0xr-178" value="" style="edgeStyle=elbowEdgeStyle;elbow=vertical;endArrow=classic;html=1;rounded=1;strokeColor=#B85450;strokeWidth=2;fontSize=15;" parent="1" edge="1">
          <mxGeometry width="50" height="50" relative="1" as="geometry">
            <mxPoint x="1275" y="220" as="sourcePoint" />
            <mxPoint x="679" y="140" as="targetPoint" />
            <Array as="points">
              <mxPoint x="980" y="140" />
            </Array>
          </mxGeometry>
        </mxCell>
        <mxCell id="CetUI4caQbK0a_8Yk0xr-179" value="&lt;font style=&quot;font-size: 15px;&quot;&gt;Dictionary with sentiment probabilities&lt;/font&gt;" style="text;html=1;strokeColor=none;fillColor=none;align=center;verticalAlign=middle;whiteSpace=wrap;rounded=0;" parent="1" vertex="1">
          <mxGeometry x="850" y="100" width="160" height="30" as="geometry" />
        </mxCell>
        <mxCell id="CetUI4caQbK0a_8Yk0xr-188" style="edgeStyle=orthogonalEdgeStyle;rounded=1;orthogonalLoop=1;jettySize=auto;html=1;strokeColor=#B20000;strokeWidth=2;fontSize=20;fillColor=#e51400;dashed=1;" parent="1" edge="1">
          <mxGeometry relative="1" as="geometry">
            <mxPoint x="190" y="449.9999999999998" as="sourcePoint" />
            <mxPoint x="613" y="210" as="targetPoint" />
            <Array as="points">
              <mxPoint x="190" y="210" />
              <mxPoint x="613" y="210" />
            </Array>
          </mxGeometry>
        </mxCell>
        <mxCell id="CetUI4caQbK0a_8Yk0xr-189" style="edgeStyle=orthogonalEdgeStyle;rounded=1;orthogonalLoop=1;jettySize=auto;html=1;strokeColor=#B20000;strokeWidth=2;fontSize=20;fillColor=#e51400;dashed=1;" parent="1" target="CetUI4caQbK0a_8Yk0xr-167" edge="1">
          <mxGeometry relative="1" as="geometry">
            <mxPoint x="190" y="381.9999999999998" as="sourcePoint" />
            <mxPoint x="613" y="142" as="targetPoint" />
            <Array as="points">
              <mxPoint x="190" y="130" />
            </Array>
          </mxGeometry>
        </mxCell>
        <mxCell id="CetUI4caQbK0a_8Yk0xr-191" value="&lt;font style=&quot;font-size: 15px;&quot;&gt;String&lt;/font&gt;" style="text;html=1;strokeColor=none;fillColor=none;align=center;verticalAlign=middle;whiteSpace=wrap;rounded=0;" parent="1" vertex="1">
          <mxGeometry x="203" y="800" width="60" height="30" as="geometry" />
        </mxCell>
        <mxCell id="CetUI4caQbK0a_8Yk0xr-192" value="&lt;font style=&quot;font-size: 15px;&quot;&gt;String&lt;/font&gt;" style="text;html=1;strokeColor=none;fillColor=none;align=center;verticalAlign=middle;whiteSpace=wrap;rounded=0;" parent="1" vertex="1">
          <mxGeometry x="203" y="582" width="60" height="30" as="geometry" />
        </mxCell>
        <mxCell id="CetUI4caQbK0a_8Yk0xr-193" value="&lt;font style=&quot;font-size: 15px;&quot;&gt;png Photo&lt;/font&gt;" style="text;html=1;strokeColor=none;fillColor=none;align=center;verticalAlign=middle;whiteSpace=wrap;rounded=0;strokeWidth=3;" parent="1" vertex="1">
          <mxGeometry x="210" y="398" width="80" height="30" as="geometry" />
        </mxCell>
        <mxCell id="CetUI4caQbK0a_8Yk0xr-194" value="&lt;font style=&quot;font-size: 15px;&quot;&gt;png Photo&lt;/font&gt;" style="text;html=1;strokeColor=none;fillColor=none;align=center;verticalAlign=middle;whiteSpace=wrap;rounded=0;strokeWidth=3;" parent="1" vertex="1">
          <mxGeometry x="210" y="172" width="80" height="30" as="geometry" />
        </mxCell>
        <mxCell id="CetUI4caQbK0a_8Yk0xr-195" value="&lt;font style=&quot;font-size: 15px;&quot;&gt;png Photo&lt;/font&gt;" style="text;html=1;strokeColor=none;fillColor=none;align=center;verticalAlign=middle;whiteSpace=wrap;rounded=0;strokeWidth=3;" parent="1" vertex="1">
          <mxGeometry x="210" y="100" width="80" height="30" as="geometry" />
        </mxCell>
        <mxCell id="28GHZzrFu9PTkFyZmICQ-2" value="" style="whiteSpace=wrap;align=center;verticalAlign=middle;fontStyle=1;strokeWidth=3;fillColor=#FFFFCC;fontSize=12;" parent="1" vertex="1">
          <mxGeometry x="1330" y="170" width="150" height="30" as="geometry" />
        </mxCell>
        <mxCell id="28GHZzrFu9PTkFyZmICQ-3" value="&lt;p style=&quot;margin: 4px 0px 0px; text-align: center; text-decoration: underline;&quot;&gt;&lt;font style=&quot;font-size: 12px;&quot;&gt;&lt;strong&gt;&lt;br&gt;&lt;/strong&gt;&lt;/font&gt;&lt;/p&gt;&lt;hr&gt;&lt;p style=&quot;margin: 0px 0px 0px 8px;&quot;&gt;&lt;font style=&quot;font-size: 12px;&quot;&gt;&amp;nbsp;&amp;nbsp;&lt;br&gt;&lt;/font&gt;&lt;/p&gt;" style="verticalAlign=middle;align=center;overflow=fill;fontSize=12;fontFamily=Helvetica;html=1;rounded=1;fontStyle=1;strokeWidth=3;fillColor=#E6FFCC" parent="1" vertex="1">
          <mxGeometry x="1330" y="288" width="100" height="50" as="geometry" />
        </mxCell>
        <mxCell id="28GHZzrFu9PTkFyZmICQ-4" value="" style="shape=process;whiteSpace=wrap;align=center;verticalAlign=middle;size=0.0475;fontStyle=1;strokeWidth=3;fillColor=#FFCCCC;fontSize=12;" parent="1" vertex="1">
          <mxGeometry x="1330" y="230" width="150" height="38" as="geometry" />
        </mxCell>
        <mxCell id="28GHZzrFu9PTkFyZmICQ-5" value="" style="html=1;whiteSpace=wrap;container=1;recursiveResize=0;collapsible=0;fillColor=#fff2cc;strokeColor=#d6b656;" parent="1" vertex="1">
          <mxGeometry x="1330" y="358" width="100" height="50" as="geometry" />
        </mxCell>
        <mxCell id="28GHZzrFu9PTkFyZmICQ-6" value="Applications" style="text;html=1;strokeColor=none;fillColor=none;align=center;verticalAlign=middle;whiteSpace=wrap;rounded=0;" parent="1" vertex="1">
          <mxGeometry x="1460" y="170" width="160" height="30" as="geometry" />
        </mxCell>
        <mxCell id="28GHZzrFu9PTkFyZmICQ-7" value="API" style="text;html=1;strokeColor=none;fillColor=none;align=center;verticalAlign=middle;whiteSpace=wrap;rounded=0;" parent="1" vertex="1">
          <mxGeometry x="1457.5" y="234" width="160" height="30" as="geometry" />
        </mxCell>
        <mxCell id="28GHZzrFu9PTkFyZmICQ-8" value="Fonctions" style="text;html=1;strokeColor=none;fillColor=none;align=center;verticalAlign=middle;whiteSpace=wrap;rounded=0;" parent="1" vertex="1">
          <mxGeometry x="1460" y="298" width="160" height="30" as="geometry" />
        </mxCell>
        <mxCell id="28GHZzrFu9PTkFyZmICQ-9" value="MÃ©thodes" style="text;html=1;strokeColor=none;fillColor=none;align=center;verticalAlign=middle;whiteSpace=wrap;rounded=0;" parent="1" vertex="1">
          <mxGeometry x="1460" y="368" width="160" height="30" as="geometry" />
        </mxCell>
        <mxCell id="28GHZzrFu9PTkFyZmICQ-12" value="&lt;font size=&quot;1&quot;&gt;&lt;b style=&quot;font-size: 30px;&quot;&gt;Legend&lt;/b&gt;&lt;/font&gt;" style="text;html=1;strokeColor=none;fillColor=none;align=center;verticalAlign=middle;whiteSpace=wrap;rounded=0;" parent="1" vertex="1">
          <mxGeometry x="1383.75" y="104" width="160" height="30" as="geometry" />
        </mxCell>
        <mxCell id="28GHZzrFu9PTkFyZmICQ-13" value="&lt;font style=&quot;font-size: 45px;&quot;&gt;&lt;b&gt;&lt;font style=&quot;font-size: 45px;&quot;&gt;Text analysis diagram&lt;/font&gt;&lt;/b&gt;&lt;/font&gt;" style="text;html=1;strokeColor=none;fillColor=none;align=center;verticalAlign=middle;whiteSpace=wrap;rounded=0;" parent="1" vertex="1">
          <mxGeometry x="170.75" y="1110" width="1280" height="30" as="geometry" />
        </mxCell>
      </root>
    </mxGraphModel>
  </diagram>
</mxfile>
